<svg width="0" height="0" xmlns="http://www.w3.org/2000/svg">
    <symbol id="search" viewBox="0 0 16 16" fill="none">
        <path
            d="M11.7422 10.3439C12.5329 9.2673 13 7.9382 13 6.5C13 2.91015 10.0899 0 6.5 0C2.91015 0 0 2.91015 0 6.5C0 10.0899 2.91015 13 6.5 13C7.93858 13 9.26801 12.5327 10.3448 11.7415L10.3439 11.7422C10.3734 11.7822 10.4062 11.8204 10.4424 11.8566L14.2929 15.7071C14.6834 16.0976 15.3166 16.0976 15.7071 15.7071C16.0976 15.3166 16.0976 14.6834 15.7071 14.2929L11.8566 10.4424C11.8204 10.4062 11.7822 10.3734 11.7422 10.3439ZM12 6.5C12 9.53757 9.53757 12 6.5 12C3.46243 12 1 9.53757 1 6.5C1 3.46243 3.46243 1 6.5 1C9.53757 1 12 3.46243 12 6.5Z"
            fill="currentColor" />
    </symbol>
    <symbol id="bars" viewBox="0 0 24 24">
        <path fill="none" stroke="currentColor" stroke-linecap="round" stroke-linejoin="round" stroke-width="2.5"
            d="M4 6h16M4 12h16M4 18h16"></path>
    </symbol>
    <symbol id="product" viewBox="0 0 48 48">
        <g fill="none" stroke="currentColor" stroke-linejoin="round" stroke-width="2.5">
            <path d="M44 14L24 4L4 14v20l20 10l20-10V14Z"></path>
            <path stroke-linecap="round" d="m4 14l20 10m0 20V24m20-10L24 24M34 9L14 19"></path>
        </g>
    </symbol>

    <symbol id="times" viewBox="0 0 24 24">
        <path fill="currentColor"
            d="M17.414 6.586a2 2 0 0 0-2.828 0L12 9.172L9.414 6.586a2 2 0 1 0-2.828 2.828L9.171 12l-2.585 2.586a2 2 0 1 0 2.828 2.828L12 14.828l2.586 2.586c.39.391.902.586 1.414.586s1.024-.195 1.414-.586a2 2 0 0 0 0-2.828L14.829 12l2.585-2.586a2 2 0 0 0 0-2.828z">
        </path>
    </symbol>

    <symbol id="cdelivery" viewBox="0 0 32 32">
        <path fill="currentColor" d="M4 16h12v2H4zm-2-5h10v2H2z"></path>
        <path fill="currentColor"
            d="m29.919 16.606l-3-7A.999.999 0 0 0 26 9h-3V7a1 1 0 0 0-1-1H6v2h15v12.556A3.992 3.992 0 0 0 19.142 23h-6.284a4 4 0 1 0 0 2h6.284a3.98 3.98 0 0 0 7.716 0H29a1 1 0 0 0 1-1v-7a.997.997 0 0 0-.081-.394ZM9 26a2 2 0 1 1 2-2a2.002 2.002 0 0 1-2 2Zm14-15h2.34l2.144 5H23Zm0 15a2 2 0 1 1 2-2a2.002 2.002 0 0 1-2 2Zm5-3h-1.142A3.995 3.995 0 0 0 23 20v-2h5Z">
        </path>
    </symbol>

    <symbol id="warning" viewBox="0 0 256 256">
        <path fill="currentColor"
            d="M225.9 102.8c-3.8-3.9-7.7-8-9.2-11.5s-1.4-8.7-1.5-14c-.1-9.7-.3-20.8-8-28.5s-18.8-7.9-28.5-8c-5.3-.1-10.7-.2-14-1.5s-7.6-5.4-11.5-9.2C146.3 23.5 138.4 16 128 16s-18.3 7.5-25.2 14.1c-3.9 3.8-8 7.7-11.5 9.2s-8.7 1.4-14 1.5c-9.7.1-20.8.3-28.5 8s-7.9 18.8-8 28.5c-.1 5.3-.2 10.7-1.5 14s-5.4 7.6-9.2 11.5C23.5 109.7 16 117.6 16 128s7.5 18.3 14.1 25.2c3.8 3.9 7.7 8 9.2 11.5s1.4 8.7 1.5 14c.1 9.7.3 20.8 8 28.5s18.8 7.9 28.5 8c5.3.1 10.7.2 14 1.5s7.6 5.4 11.5 9.2c6.9 6.6 14.8 14.1 25.2 14.1s18.3-7.5 25.2-14.1c3.9-3.8 8-7.7 11.5-9.2s8.7-1.4 14-1.5c9.7-.1 20.8-.3 28.5-8s7.9-18.8 8-28.5c.1-5.3.2-10.7 1.5-14s5.4-7.6 9.2-11.5c6.6-6.9 14.1-14.8 14.1-25.2s-7.5-18.3-14.1-25.2Zm-11.6 39.3c-4.8 5-9.7 10.2-12.4 16.5s-2.6 13.1-2.7 19.8s-.2 14.4-3.3 17.5s-10.4 3.2-17.5 3.3s-13.7.2-19.8 2.7s-11.5 7.6-16.5 12.4S132 224 128 224s-9.1-4.9-14.1-9.7s-10.2-9.7-16.5-12.4s-13.1-2.6-19.8-2.7s-14.4-.2-17.5-3.3s-3.2-10.4-3.3-17.5s-.2-13.7-2.7-19.8s-7.6-11.5-12.4-16.5S32 132 32 128s4.9-9.1 9.7-14.1s9.7-10.2 12.4-16.5s2.6-13.1 2.7-19.8s.2-14.4 3.3-17.5s10.4-3.2 17.5-3.3s13.7-.2 19.8-2.7s11.5-7.6 16.5-12.4S124 32 128 32s9.1 4.9 14.1 9.7s10.2 9.7 16.5 12.4s13.1 2.6 19.8 2.7s14.4.2 17.5 3.3s3.2 10.4 3.3 17.5s.2 13.7 2.7 19.8s7.6 11.5 12.4 16.5S224 124 224 128s-4.9 9.1-9.7 14.1ZM120 136V80a8 8 0 0 1 16 0v56a8 8 0 0 1-16 0Zm20 36a12 12 0 1 1-12-12a12 12 0 0 1 12 12Z">
        </path>
    </symbol>

    <symbol id="video" viewBox="0 0 24 24">
        <path fill="currentColor"
            d="m13.05 13.5l4.15-2.65q.475-.275.475-.85t-.475-.85L13.05 6.5q-.5-.325-1.025-.05q-.525.275-.525.875v5.35q0 .6.525.875t1.025-.05ZM8 18q-.825 0-1.412-.587Q6 16.825 6 16V4q0-.825.588-1.413Q7.175 2 8 2h12q.825 0 1.413.587Q22 3.175 22 4v12q0 .825-.587 1.413Q20.825 18 20 18Zm0-2h12V4H8v12Zm-4 6q-.825 0-1.412-.587Q2 20.825 2 20V7q0-.425.288-.713Q2.575 6 3 6t.713.287Q4 6.575 4 7v13h13q.425 0 .712.288q.288.287.288.712t-.288.712Q17.425 22 17 22ZM8 4v12V4Z">
        </path>
    </symbol>

    <symbol id="seo" viewBox="0 0 48 48">
        <g fill="none" stroke="currentColor" stroke-width="2.5">
            <rect width="40" height="32" x="4" y="8" rx="1.633"></rect>
            <path stroke-linecap="round" stroke-linejoin="round"
                d="M16 18.948c-2-2.948-5.502-1.01-5.251 2.02C11 24 15 24 15.249 27.032C15.5 30.062 12 32 10 29.051M26 18h-4v13h4m-4-6h4">
            </path>
            <rect width="6" height="13" x="32" y="18" stroke-linecap="round" stroke-linejoin="round" rx="3"></rect>
        </g>
    </symbol>

    <symbol viewBox="0 0 21 21" id="system-uicons-picture">
        <g fill="none" fill-rule="evenodd" transform="translate(3 3)">
            <g stroke="currentColor" stroke-linecap="round" stroke-linejoin="round">
                <path d="M2.5.5h10a2 2 0 0 1 2 2v10a2 2 0 0 1-2 2h-10a2 2 0 0 1-2-2v-10a2 2 0 0 1 2-2z"></path>
                <path d="m14.5 10.5l-3-3l-3 2.985m4 4.015l-9-9l-3 3"></path>
            </g>
            <circle cx="11" cy="4" r="1" fill="currentColor"></circle>
        </g>
    </symbol>
</svg>