<svg width="34" height="24" viewBox="0 0 34 24" fill="none" xmlns="http://www.w3.org/2000/svg">
<path d="M0 3C0 1.34315 1.42709 0 3.1875 0H22.3125C24.0729 0 25.5 1.34315 25.5 3V6H27.6662C28.6345 6 29.5503 6.41427 30.1552 7.12592L33.3015 10.8275C33.7537 11.3594 34 12.0203 34 12.7016V17C34 18.6569 32.5729 20 30.8125 20H29.75C29.75 22.2091 27.8472 24 25.5 24C23.1528 24 21.25 22.2091 21.25 20H10.625C10.625 22.2091 8.72221 24 6.375 24C4.02779 24 2.125 22.2091 2.125 20C2.125 19.9432 2.12626 19.8867 2.12875 19.8305C0.88877 19.4197 0 18.3075 0 17V3ZM2.74966 17.9114C3.49695 16.7648 4.84108 16 6.375 16C7.9481 16 9.32158 16.8044 10.0564 18H21.8186C22.1918 17.3927 22.7298 16.8864 23.375 16.5351V3C23.375 2.44771 22.8993 2 22.3125 2H3.1875C2.6007 2 2.125 2.44772 2.125 3V17C2.125 17.4054 2.38127 17.7544 2.74966 17.9114ZM25.5 16C27.0731 16 28.4466 16.8044 29.1814 18H30.8125C31.3993 18 31.875 17.5523 31.875 17V12.7016C31.875 12.4745 31.7929 12.2542 31.6422 12.0769L28.4958 8.37531C28.2942 8.13809 27.9889 8 27.6662 8H25.5V16ZM6.375 18C5.20139 18 4.25 18.8954 4.25 20C4.25 21.1046 5.20139 22 6.375 22C7.54861 22 8.5 21.1046 8.5 20C8.5 18.8954 7.54861 18 6.375 18ZM25.5 18C24.3264 18 23.375 18.8954 23.375 20C23.375 21.1046 24.3264 22 25.5 22C26.6736 22 27.625 21.1046 27.625 20C27.625 18.8954 26.6736 18 25.5 18Z" fill="black"/>
</svg>
